<svg width="32" height="32" viewBox="0 0 32 32" fill="none" xmlns="http://www.w3.org/2000/svg">
<g clip-path="url(#clip0_214_985)">
<path d="M15.9999 32C24.8364 32 31.9999 24.8366 31.9999 16C31.9999 7.16344 24.8364 0 15.9999 0C7.16332 0 -0.00012207 7.16344 -0.00012207 16C-0.00012207 24.8366 7.16332 32 15.9999 32Z" fill="#1F2DE3"/>
<path fill-rule="evenodd" clip-rule="evenodd" d="M24.9925 21.6546L23.2652 24.5643L23.2192 24.6419L19.5583 24.6285L21.4831 21.645L22.5016 21.6479L24.9925 21.6546Z" fill="#7195FD"/>
<path fill-rule="evenodd" clip-rule="evenodd" d="M24.8671 17.4055L21.5339 17.2445L19.8228 14.2505L23.2355 14.1672L24.8671 17.4055Z" fill="#7195FD"/>
<path fill-rule="evenodd" clip-rule="evenodd" d="M15.2057 5.37579L12.6773 6.90299L9.37289 6.94803L12.0488 5.38346L15.2057 5.37579Z" fill="#7195FD"/>
<path fill-rule="evenodd" clip-rule="evenodd" d="M12.343 7.33887L10.3895 10.4335L9.75809 10.4287L6.92502 10.4067L8.65339 7.43753L8.68215 7.3887L12.343 7.33887Z" fill="#7195FD"/>
<path fill-rule="evenodd" clip-rule="evenodd" d="M6.43067 14.4401L4.81437 17.2751L4.79044 14.0722L6.35497 11.3857L6.43067 14.4401Z" fill="white"/>
<path fill-rule="evenodd" clip-rule="evenodd" d="M8.31716 18.0723L6.79097 20.6581L6.57156 21.0318L5.39887 19.015L4.8537 18.0771L6.6415 14.9412L8.31716 18.0723Z" fill="white"/>
<path fill-rule="evenodd" clip-rule="evenodd" d="M15.5994 20.1925L14.534 22.1183L13.94 23.1923L10.7161 23.061H10.7151L10.3558 23.0457L12.1781 20.2826L15.5994 20.1925Z" fill="white"/>
<path fill-rule="evenodd" clip-rule="evenodd" d="M15.6197 26.6156L12.1361 26.6031L10.3474 23.4769L13.9354 23.6235L15.6197 26.6156Z" fill="white"/>
<path fill-rule="evenodd" clip-rule="evenodd" d="M22.5591 25.0701L19.9215 26.6299L16.7359 26.6193L19.225 25.0586H19.2259L22.5591 25.0701Z" fill="#7195FD"/>
<path fill-rule="evenodd" clip-rule="evenodd" d="M18.7373 18.6232L17.1076 21.2886L16.5816 21.6124L16.5807 21.6134L14.6501 22.7995L15.1052 21.9775L16.1304 20.1245L18.7373 18.6232Z" fill="white"/>
<path fill-rule="evenodd" clip-rule="evenodd" d="M21.1123 21.4246L19.177 24.4253L17.5157 21.4485L19.3581 18.4344L21.1123 21.4246Z" fill="white"/>
<path fill-rule="evenodd" clip-rule="evenodd" d="M27.1867 14.8014V17.9583L25.5579 20.7023L25.4449 17.6987V17.6958L27.1867 14.8014Z" fill="white"/>
<path fill-rule="evenodd" clip-rule="evenodd" d="M27.1521 14.0235L25.2427 17.1928L23.6111 13.9564L24.092 13.1392L25.3787 10.9538L27.1081 13.9478L27.1521 14.0235Z" fill="white"/>
<path fill-rule="evenodd" clip-rule="evenodd" d="M22.1882 8.63229V8.63133L20.5269 5.73599L23.2852 7.32736L24.8249 9.99563L22.1882 8.63229Z" fill="white"/>
<path fill-rule="evenodd" clip-rule="evenodd" d="M21.6479 8.55567L18.0541 8.34487L16.7282 6.02727L16.3535 5.37387L19.1464 5.36717H19.1473L19.818 5.36523L21.6479 8.55567Z" fill="white"/>
<path fill-rule="evenodd" clip-rule="evenodd" d="M14.2707 10.5657L12.4944 13.5463L10.7603 10.6529L12.7186 7.55161L14.2707 10.5657Z" fill="white"/>
<path fill-rule="evenodd" clip-rule="evenodd" d="M11.4377 26.2496L8.71673 24.7224L7.133 21.9985L8.56533 22.7516L9.81083 23.4069L11.247 25.9161L11.248 25.9171L11.2489 25.9181L11.4377 26.2496Z" fill="white"/>
<path fill-rule="evenodd" clip-rule="evenodd" d="M10.3185 14.3924L6.85794 14.286L6.77267 10.8369L9.91804 10.8609L10.2936 10.8637L10.3013 11.8975L10.3185 14.3924Z" fill="#7195FD"/>
<path fill-rule="evenodd" clip-rule="evenodd" d="M11.7537 20.1427L9.99463 22.81L9.89307 22.9643L7.82073 21.873H7.81977L6.8703 21.3729L7.08683 21.0069L8.6418 18.3703L10.2274 19.2738L11.7537 20.1427Z" fill="white"/>
<path fill-rule="evenodd" clip-rule="evenodd" d="M15.1971 19.7719L12.1159 19.8524H12.1149L12.113 19.8514L10.2591 18.7956L9.35373 18.2792L10.2946 18.2629L12.502 18.2236L12.5049 18.2255L15.1971 19.7719Z" fill="#7195FD"/>
<path fill-rule="evenodd" clip-rule="evenodd" d="M12.1821 17.7982L10.3234 17.8308L8.69275 17.8605L7.01321 14.7218L10.4106 14.8263L10.5102 14.993L12.1821 17.7982Z" fill="#7195FD"/>
<path fill-rule="evenodd" clip-rule="evenodd" d="M12.1149 19.8524H12.113V19.8514L12.1149 19.8524Z" fill="white"/>
<path fill-rule="evenodd" clip-rule="evenodd" d="M12.3295 17.2032L12.1484 16.9005L10.7506 14.5551L10.74 13.0864L10.7285 11.4375L12.2797 14.0272L12.3295 17.2032Z" fill="white"/>
<path fill-rule="evenodd" clip-rule="evenodd" d="M8.68211 7.38866L8.65334 7.43752L8.63611 7.38962L8.68211 7.38866Z" fill="white"/>
<path fill-rule="evenodd" clip-rule="evenodd" d="M25.0787 10.6126L23.6598 13.0231L23.2881 13.6555L20.8766 12.2777L20.2462 11.9175L22.1068 9.07486L25.0787 10.6126Z" fill="white"/>
<path fill-rule="evenodd" clip-rule="evenodd" d="M17.6326 8.47608L16.0939 9.38818L14.6041 10.2716L13.1095 7.36952V7.36855L13.0214 7.19802L13.5004 6.90962L15.9052 5.45718L16.299 6.14508L17.6326 8.47608Z" fill="white"/>
<path fill-rule="evenodd" clip-rule="evenodd" d="M21.6488 8.98777L19.8237 11.7768L19.6263 11.7787L19.0323 11.7835L16.3593 11.8065L16.7176 11.1636L17.2647 10.1806L18.0474 8.77603L21.6488 8.98777Z" fill="white"/>
<path fill-rule="evenodd" clip-rule="evenodd" d="M17.3491 9.14583L16.9074 9.93913L16.2885 11.0486L15.8324 11.8677L13.0894 13.3901L14.6741 10.7315L14.8091 10.6519L16.4887 9.65553L17.3491 9.14583Z" fill="white"/>
<path fill-rule="evenodd" clip-rule="evenodd" d="M22.5867 13.7513L19.5123 13.826L16.7788 12.2347L19.884 12.2078H19.8849L22.5867 13.7513Z" fill="#7195FD"/>
<path fill-rule="evenodd" clip-rule="evenodd" d="M25.1468 21.2235L22.3894 21.2168L21.5827 21.2149L21.6124 18.2486L21.6182 17.6805L25.0184 17.8443L25.1468 21.2235Z" fill="#7195FD"/>
<path fill-rule="evenodd" clip-rule="evenodd" d="M23.2651 24.5604L23.2191 24.638H23.2852L23.2651 24.5604Z" fill="white"/>
<path fill-rule="evenodd" clip-rule="evenodd" d="M21.1881 17.5099L21.1574 20.6495L19.5785 17.9583L19.6532 14.8234L21.1881 17.5099Z" fill="white"/>
<path fill-rule="evenodd" clip-rule="evenodd" d="M18.8752 24.7693L16.0671 26.5293L14.354 23.4874L17.1871 21.7456L18.8752 24.7693Z" fill="white"/>
<path fill-rule="evenodd" clip-rule="evenodd" d="M12.113 19.8514L12.1149 19.8524H12.113V19.8514Z" fill="white"/>
<path fill-rule="evenodd" clip-rule="evenodd" d="M12.502 18.2236H12.5058L12.5049 18.2255L12.502 18.2236Z" fill="white"/>
</g>
<defs>
<clipPath id="clip0_214_985">
<rect width="32" height="32" fill="white" transform="translate(-0.00012207)"/>
</clipPath>
</defs>
</svg>
