<svg width="32" height="32" viewBox="0 0 32 32" fill="none" xmlns="http://www.w3.org/2000/svg">
<path d="M16 32C24.8366 32 32 24.8366 32 16C32 7.16344 24.8366 0 16 0C7.16344 0 0 7.16344 0 16C0 24.8366 7.16344 32 16 32Z" fill="#FFC800"/>
<path fill-rule="evenodd" clip-rule="evenodd" d="M16.7129 23.2218C16.4784 23.2447 16.2405 23.2564 16 23.2564C11.9924 23.2564 8.74359 20.0076 8.74359 16C8.74359 11.9924 11.9924 8.74359 16 8.74359C20.0076 8.74359 23.2564 11.9924 23.2564 16C23.2564 17.4901 22.8072 18.8753 22.0369 20.0277C21.4736 19.5923 20.7672 19.3333 20.0002 19.3333C18.1593 19.3333 16.6669 20.8257 16.6669 22.6666C16.6669 22.8558 16.6827 23.0413 16.7129 23.2218ZM17.79 25.1618C17.2107 25.2744 16.6122 25.3334 16 25.3334C10.8453 25.3334 6.66666 21.1547 6.66666 16C6.66666 10.8454 10.8453 6.66666 16 6.66666C21.1547 6.66666 25.3333 10.8454 25.3333 16C25.3333 18.2324 24.5496 20.2818 23.2421 21.8879C23.3019 22.1378 23.3336 22.3985 23.3336 22.6666C23.3336 24.5076 21.8412 26 20.0002 26C19.1523 26 18.3783 25.6834 17.79 25.1618Z" fill="white"/>
</svg>
