<svg width="32" height="32" viewBox="0 0 32 32" fill="none" xmlns="http://www.w3.org/2000/svg">
<path d="M16 32C24.8366 32 32 24.8366 32 16C32 7.16344 24.8366 0 16 0C7.16344 0 0 7.16344 0 16C0 24.8366 7.16344 32 16 32Z" fill="url(#paint0_linear_214_1035)"/>
<path fill-rule="evenodd" clip-rule="evenodd" d="M5.60723 17.7579C5.60447 17.8177 5.60307 17.8777 5.60307 17.9378C5.60307 18.1652 5.6229 18.3898 5.6615 18.611H5.60307V18.9592C5.60307 19.1292 5.61413 19.2976 5.63587 19.4641C6.0595 22.7144 10.5379 25.2719 16 25.2719C21.4621 25.2719 25.9405 22.7144 26.3641 19.4641C26.3859 19.2976 26.3969 19.1292 26.3969 18.9592V18.611H26.3385C26.3771 18.3898 26.3969 18.1652 26.3969 17.9378C26.3969 17.8777 26.3955 17.8177 26.3928 17.7579C26.2359 14.3547 21.643 11.6252 16 11.6252C10.357 11.6252 5.76407 14.3547 5.60723 17.7579ZM4.75333 17.7579C4.83067 15.6815 6.24167 13.9373 8.20553 12.7449C10.2413 11.5088 12.9992 10.7721 16 10.7721C19.0008 10.7721 21.7587 11.5088 23.7945 12.7449C25.7583 13.9373 27.1693 15.6815 27.2467 17.7579H27.25V18.9592C27.25 21.1148 25.8148 22.9255 23.7945 24.1522C21.7587 25.3882 19.0008 26.125 16 26.125C12.9992 26.125 10.2413 25.3882 8.20553 24.1522C6.1852 22.9255 4.75 21.1148 4.75 18.9592V17.7579H4.75333Z" fill="#606063"/>
<path d="M26.3969 18.9594C26.3969 22.4458 21.742 25.2721 16 25.2721C10.2579 25.2721 5.60306 22.4458 5.60306 18.9594V17.9601H26.3969V18.9594Z" fill="#BEBEBE"/>
<path d="M26.3969 17.9378C26.3969 21.4242 21.742 24.2505 16 24.2505C10.2579 24.2505 5.60306 21.4242 5.60306 17.9378C5.60306 14.4514 10.2579 11.6252 16 11.6252C21.742 11.6252 26.3969 14.4514 26.3969 17.9378Z" fill="#FAF9FA"/>
<path fill-rule="evenodd" clip-rule="evenodd" d="M7.20266 16.1545C7.20266 16.1584 7.20266 16.1624 7.20266 16.1663C7.20266 16.4534 7.24426 16.7345 7.32399 17.0076H7.20256V17.3773C7.20256 17.5405 7.21599 17.7017 7.24226 17.8607C7.63862 20.261 10.9547 22.1345 14.9869 22.1345C19.019 22.1345 22.3351 20.261 22.7315 17.8607C22.7577 17.7017 22.7712 17.5405 22.7712 17.3773V17.0076H22.6499C22.7275 16.742 22.769 16.4687 22.7712 16.1898C22.7713 16.182 22.7713 16.1742 22.7713 16.1663C22.7713 16.1624 22.7713 16.1584 22.7713 16.1545C22.7608 13.5326 19.2797 11.4092 14.987 11.4092C10.6943 11.4092 7.21312 13.5326 7.20266 16.1545ZM6.34959 16.1545H6.34946V17.3773C6.34946 19.1006 7.48902 20.5226 9.03769 21.469C10.601 22.4244 12.7065 22.9876 14.9869 22.9876C17.2673 22.9876 19.3727 22.4244 20.9361 21.469C22.4847 20.5226 23.6243 19.1006 23.6243 17.3773V16.193C23.6243 16.1841 23.6244 16.1752 23.6244 16.1663C23.6244 14.443 22.4848 13.021 20.9361 12.0746C19.3728 11.1192 17.2674 10.5561 14.987 10.5561C12.7066 10.5561 10.6011 11.1192 9.03779 12.0746C7.49266 13.0188 6.35479 14.4365 6.34959 16.1545Z" fill="#633001"/>
<path d="M22.7713 17.3774C22.7713 20.0047 19.2861 22.1346 14.987 22.1346C10.6878 22.1346 7.20264 20.0047 7.20264 17.3774V16.2612H22.7713V17.3774Z" fill="#FEDC90"/>
<path d="M22.7713 16.1664C22.7713 18.7937 19.2861 20.9235 14.987 20.9235C10.6878 20.9235 7.20264 18.7937 7.20264 16.1664C7.20264 13.539 10.6878 11.4092 14.987 11.4092C19.2861 11.4092 22.7713 13.539 22.7713 16.1664Z" fill="#D1884F"/>
<path fill-rule="evenodd" clip-rule="evenodd" d="M9.54863 13.5952C9.54863 13.5992 9.5486 13.6031 9.5486 13.6071C9.5486 13.8941 9.59023 14.1752 9.66993 14.4483H9.54853V14.818C9.54853 14.9812 9.56197 15.1424 9.58823 15.3014C9.9846 17.7017 13.3007 19.5752 17.3328 19.5752C21.365 19.5752 24.6811 17.7017 25.0775 15.3014C25.1037 15.1424 25.1172 14.9812 25.1172 14.818V14.4483H24.9959C25.0735 14.1827 25.1149 13.9094 25.1172 13.6305C25.1172 13.6227 25.1172 13.6149 25.1172 13.6071C25.1172 13.6031 25.1172 13.5992 25.1172 13.5952C25.1068 10.9733 21.6256 8.8499 17.3329 8.8499C13.0402 8.8499 9.5591 10.9733 9.54863 13.5952ZM8.69557 13.5952H8.69543V14.818C8.69543 16.5413 9.83497 17.9633 11.3837 18.9098C12.947 19.8651 15.0524 20.4283 17.3328 20.4283C19.6132 20.4283 21.7187 19.8651 23.282 18.9098C24.8307 17.9633 25.9702 16.5413 25.9702 14.818V13.6337C25.9703 13.6248 25.9703 13.6159 25.9703 13.6071C25.9703 11.8837 24.8308 10.4617 23.2821 9.5153C21.7188 8.5599 19.6133 7.9968 17.3329 7.9968C15.0525 7.9968 12.9471 8.5599 11.3837 9.5153C9.83863 10.4596 8.70077 11.8772 8.69557 13.5952Z" fill="#633001"/>
<path d="M25.1171 14.8181C25.1171 17.4454 21.632 19.5752 17.3328 19.5752C13.0337 19.5752 9.54849 17.4454 9.54849 14.8181V13.7019H25.1171V14.8181Z" fill="#FEDC90"/>
<path d="M25.1171 13.6071C25.1171 16.2344 21.632 18.3643 17.3328 18.3643C13.0337 18.3643 9.54849 16.2344 9.54849 13.6071C9.54849 10.9798 13.0337 8.84991 17.3328 8.84991C21.632 8.84991 25.1171 10.9798 25.1171 13.6071Z" fill="#D1884F"/>
<path fill-rule="evenodd" clip-rule="evenodd" d="M7.20266 11.0359C7.20266 11.0399 7.20266 11.0438 7.20266 11.0478C7.20266 11.3348 7.24426 11.616 7.32399 11.889H7.20256V12.2587C7.20256 12.4219 7.21599 12.5832 7.24226 12.7421C7.63862 15.1424 10.9547 17.0159 14.9869 17.0159C19.019 17.0159 22.3351 15.1424 22.7315 12.7421C22.7577 12.5832 22.7712 12.4219 22.7712 12.2587V11.889H22.6499C22.7275 11.6234 22.769 11.3502 22.7712 11.0712C22.7713 11.0634 22.7713 11.0556 22.7713 11.0478C22.7713 11.0438 22.7713 11.0399 22.7713 11.0359C22.7608 8.41407 19.2797 6.2906 14.987 6.2906C10.6943 6.2906 7.21312 8.41407 7.20266 11.0359ZM6.34959 11.0359H6.34946V12.2587C6.34946 13.982 7.48902 15.404 9.03769 16.3505C10.601 17.3059 12.7065 17.869 14.9869 17.869C17.2673 17.869 19.3727 17.3059 20.9361 16.3505C22.4847 15.404 23.6243 13.982 23.6243 12.2587V11.0744C23.6243 11.0655 23.6244 11.0567 23.6244 11.0478C23.6244 9.32447 22.4848 7.90243 20.9361 6.956C19.3728 6.00063 17.2674 5.4375 14.987 5.4375C12.7066 5.4375 10.6011 6.00063 9.03779 6.956C7.49266 7.90027 6.35479 9.31793 6.34959 11.0359Z" fill="#633001"/>
<path d="M22.7713 12.2587C22.7713 14.886 19.2861 17.0159 14.987 17.0159C10.6878 17.0159 7.20264 14.886 7.20264 12.2587V11.1426H22.7713V12.2587Z" fill="#FEDC90"/>
<path d="M22.7713 11.0478C22.7713 13.6751 19.2861 15.805 14.987 15.805C10.6878 15.805 7.20264 13.6751 7.20264 11.0478C7.20264 8.42045 10.6878 6.29059 14.987 6.29059C19.2861 6.29059 22.7713 8.42045 22.7713 11.0478Z" fill="#D1884F"/>
<path fill-rule="evenodd" clip-rule="evenodd" d="M9.04398 11.3438C9.04398 12.2209 9.68134 13.0065 10.6869 13.5351L9.99021 14.7418L9.99034 14.7419H9.99021V17.7959C9.99021 18.1997 10.3176 18.5271 10.7214 18.5271C11.1252 18.5271 11.4526 18.1997 11.4526 17.7959V15.3671L12.2021 14.0688C12.6814 14.1705 13.1959 14.2257 13.7313 14.2257C16.32 14.2257 18.4186 12.9354 18.4186 11.3438C18.4186 9.75212 16.32 8.46185 13.7313 8.46185C11.1426 8.46185 9.04398 9.75212 9.04398 11.3438Z" fill="url(#paint1_linear_214_1035)"/>
<path fill-rule="evenodd" clip-rule="evenodd" d="M10.6868 13.5351C10.5755 13.4766 10.4686 13.4149 10.3666 13.3503C9.54792 12.8314 9.04392 12.1238 9.04392 11.3438C9.04392 9.75216 11.1425 8.46189 13.7313 8.46189C16.32 8.46189 18.4186 9.75216 18.4186 11.3438C18.4186 12.9354 16.32 14.2257 13.7313 14.2257C13.1958 14.2257 12.6814 14.1705 12.2021 14.0689L11.4526 15.3671V17.7959C11.4526 18.1997 11.1252 18.5271 10.7214 18.5271C10.3175 18.5271 9.99015 18.1997 9.99015 17.7959V14.7419L10.6868 13.5351ZM9.24372 14.7548V17.7959C9.24372 18.612 9.90529 19.2736 10.7214 19.2736C11.5375 19.2736 12.199 18.612 12.199 17.7959V15.5671L12.5878 14.8938C12.957 14.9452 13.3397 14.9722 13.7313 14.9722C15.1409 14.9722 16.4528 14.6224 17.4367 14.0175C18.4083 13.4201 19.165 12.4958 19.165 11.3438C19.165 10.1918 18.4083 9.26749 17.4367 8.67009C16.4528 8.06522 15.1409 7.71542 13.7313 7.71542C12.3216 7.71542 11.0097 8.06522 10.0259 8.67009C9.05422 9.26749 8.29749 10.1918 8.29749 11.3438C8.29749 12.3549 8.87659 13.1875 9.68122 13.7841L9.34885 14.3597C9.31719 14.4127 9.29189 14.47 9.27405 14.5305C9.25222 14.6043 9.24235 14.6799 9.24372 14.7548Z" fill="#633001"/>
<path d="M10.5083 10.1296C10.5083 10.9541 11.5586 11.6225 12.8542 11.6225C14.1499 11.6225 15.2002 10.9541 15.2002 10.1296C15.2002 9.30503 14.1499 8.63663 12.8542 8.63663C11.5586 8.63663 10.5083 9.30503 10.5083 10.1296Z" fill="#9E7200"/>
<path d="M10.5083 9.48969H15.2002V10.1295H10.5083V9.48969Z" fill="#9E7200"/>
<path d="M10.5083 9.4897C10.5083 10.3142 11.5586 10.9826 12.8542 10.9826C14.1499 10.9826 15.2002 10.3142 15.2002 9.4897C15.2002 8.6652 14.1499 7.9968 12.8542 7.9968C11.5586 7.9968 10.5083 8.6652 10.5083 9.4897Z" fill="#F0B90B"/>
<path d="M11.964 9.3098L12.6252 8.889C12.7649 8.80006 12.9435 8.80006 13.0832 8.889L13.7445 9.3098C13.8761 9.3936 13.8761 9.58583 13.7445 9.66966L13.0832 10.0905C12.9435 10.1794 12.7649 10.1794 12.6252 10.0905L11.964 9.66966C11.8323 9.58583 11.8323 9.3936 11.964 9.3098Z" fill="#9E7200"/>
<path fill-rule="evenodd" clip-rule="evenodd" d="M10.7947 7.8043C11.3562 7.44694 12.0864 7.25034 12.8543 7.25034C13.6222 7.25034 14.3523 7.44694 14.9139 7.8043C15.4666 8.156 15.9467 8.7337 15.9467 9.4897V10.1295C15.9467 10.8855 15.4666 11.4632 14.9139 11.8149C14.3523 12.1723 13.6222 12.3689 12.8543 12.3689C12.0864 12.3689 11.3562 12.1723 10.7947 11.8149C10.242 11.4632 9.76187 10.8855 9.76187 10.1295V9.4897C9.76187 8.7337 10.242 8.156 10.7947 7.8043ZM12.8543 7.9968C11.5587 7.9968 10.5083 8.6652 10.5083 9.4897V10.1295C10.5083 10.954 11.5587 11.6225 12.8543 11.6225C14.1499 11.6225 15.2003 10.954 15.2003 10.1295V9.4897C15.2003 8.6652 14.1499 7.9968 12.8543 7.9968Z" fill="#633001"/>
<defs>
<linearGradient id="paint0_linear_214_1035" x1="16" y1="0" x2="16" y2="32" gradientUnits="userSpaceOnUse">
<stop stop-color="#00D632"/>
<stop offset="0.762" stop-color="#00B82B"/>
</linearGradient>
<linearGradient id="paint1_linear_214_1035" x1="13.782" y1="8.55832" x2="13.782" y2="18.4513" gradientUnits="userSpaceOnUse">
<stop stop-color="#9F4A08"/>
<stop offset="0.37" stop-color="#7D3900"/>
<stop offset="1" stop-color="#8D4104"/>
</linearGradient>
</defs>
</svg>
