<svg width="30" height="30" viewBox="0 0 30 30" fill="none" xmlns="http://www.w3.org/2000/svg">
<circle cx="15" cy="15" r="15" fill="#0033AD"/>
<path d="M10.4829 14.9237C10.4402 15.665 11.0108 16.2996 11.7521 16.3423C11.7788 16.3423 11.8055 16.3423 11.8321 16.3423C12.5788 16.3423 13.1814 15.7397 13.1761 14.993C13.1761 14.2464 12.5734 13.6438 11.8268 13.6491C11.1122 13.6491 10.5202 14.2091 10.4829 14.9237Z" fill="#EDF0F4"/>
<path d="M5.45909 14.5771C5.2191 14.5611 5.01111 14.7477 5.00045 14.9877C4.98978 15.2277 5.17111 15.4357 5.4111 15.4463C5.65108 15.4623 5.85374 15.2757 5.86974 15.0357C5.88574 14.7957 5.69908 14.5931 5.45909 14.5771Z" fill="#EDF0F4"/>
<path d="M10.3975 7.10539C10.6109 6.99873 10.6962 6.73207 10.5895 6.51875C10.4829 6.30542 10.2162 6.2201 10.0029 6.32676C9.78956 6.43342 9.70423 6.69474 9.8109 6.90806C9.91756 7.12672 10.1789 7.21738 10.3975 7.10539C10.3975 7.10539 10.3922 7.10539 10.3975 7.10539Z" fill="#EDF0F4"/>
<path d="M11.7628 9.48929C12.0935 9.32396 12.2268 8.91864 12.0615 8.58799C11.8961 8.25734 11.4908 8.12401 11.1602 8.28934C10.8295 8.45467 10.6962 8.85998 10.8615 9.19063C11.0268 9.52128 11.4322 9.65461 11.7628 9.48929Z" fill="#EDF0F4"/>
<path d="M7.16568 11.1265C7.42167 11.2919 7.76299 11.2225 7.93365 10.9666C8.09898 10.7106 8.02965 10.3692 7.77366 10.1986C7.51767 10.0333 7.17635 10.1026 7.00569 10.3586C6.83503 10.6146 6.9097 10.9612 7.16568 11.1265Z" fill="#EDF0F4"/>
<path d="M7.98165 14.3371C7.60833 14.3157 7.29368 14.5984 7.27235 14.9717C7.25101 15.345 7.53367 15.6597 7.90698 15.681C8.2803 15.7023 8.59495 15.4197 8.61629 15.0464C8.63762 14.6784 8.35496 14.3584 7.98165 14.3371Z" fill="#EDF0F4"/>
<path d="M7.24035 18.8542C6.96836 18.9929 6.85636 19.3235 6.99502 19.6008C7.13368 19.8728 7.46434 19.9848 7.74166 19.8461C8.01364 19.7075 8.12564 19.3768 7.98698 19.0995C7.84832 18.8275 7.51233 18.7155 7.24035 18.8542Z" fill="#EDF0F4"/>
<path d="M9.85357 12.9451C10.2215 13.1851 10.7122 13.0838 10.9468 12.7158C11.1868 12.3478 11.0855 11.8572 10.7175 11.6225C10.3495 11.3825 9.8589 11.4839 9.62424 11.8519C9.38425 12.2145 9.48558 12.7051 9.85357 12.9451Z" fill="#EDF0F4"/>
<path d="M18.1465 9.43595C18.4558 9.63861 18.8772 9.55328 19.0798 9.24396C19.2825 8.93464 19.1971 8.51333 18.8878 8.31067C18.5785 8.10801 18.1572 8.19334 17.9545 8.50266C17.7465 8.81731 17.8319 9.23329 18.1465 9.43595Z" fill="#EDF0F4"/>
<path d="M19.5225 7.06273C19.7251 7.19605 19.9918 7.13739 20.1251 6.93473C20.2584 6.73207 20.1998 6.46542 19.9971 6.33209C19.7945 6.19876 19.5278 6.25743 19.3945 6.45475C19.2665 6.65741 19.3251 6.9294 19.5225 7.06273Z" fill="#EDF0F4"/>
<path d="M18.2478 13.6384C17.5065 13.5958 16.8666 14.1664 16.8292 14.9077C16.7866 15.649 17.3572 16.289 18.0985 16.3263C18.1252 16.3263 18.1519 16.3263 18.1732 16.3263C18.9145 16.3263 19.5171 15.7237 19.5171 14.977C19.5225 14.2677 18.9625 13.6758 18.2478 13.6384Z" fill="#EDF0F4"/>
<path d="M12.2055 12.8491C12.4348 13.3024 12.8988 13.5904 13.4107 13.5904C14.152 13.5904 14.7547 12.9878 14.7547 12.2412C14.7547 12.0332 14.7067 11.8252 14.6107 11.6332C14.2747 10.9665 13.4641 10.6999 12.8028 11.0359C12.1361 11.3772 11.8695 12.1878 12.2055 12.8491Z" fill="#EDF0F4"/>
<path d="M22.7597 11.1265C23.0316 10.9879 23.1383 10.6519 22.9996 10.3799C22.861 10.1079 22.525 10.0013 22.253 10.1399C21.981 10.2786 21.8744 10.6092 22.0077 10.8812C22.1517 11.1532 22.4823 11.2652 22.7597 11.1265Z" fill="#EDF0F4"/>
<path d="M19.3465 11.5532C18.9572 11.7505 18.7972 12.2252 18.9945 12.6145C19.1918 13.0038 19.6665 13.1638 20.0558 12.9665C20.4451 12.7691 20.6051 12.2945 20.4078 11.9052C20.2104 11.5159 19.7358 11.3612 19.3465 11.5532Z" fill="#EDF0F4"/>
<path d="M14.9467 6.86007C15.2507 6.87607 15.512 6.64142 15.5333 6.33743C15.5546 6.03344 15.3147 5.77212 15.0107 5.75079C14.7067 5.73479 14.4454 5.96411 14.424 6.2681C14.408 6.57742 14.6427 6.83874 14.9467 6.86007Z" fill="#EDF0F4"/>
<path d="M14.9413 10.3426C15.3786 10.3692 15.752 10.0333 15.7733 9.59594C15.8 9.15863 15.464 8.78531 15.0267 8.76398C14.5894 8.73732 14.216 9.0733 14.1947 9.51061C14.1734 9.94793 14.504 10.3212 14.9413 10.3426Z" fill="#EDF0F4"/>
<path d="M10.6535 18.4276C11.0428 18.2302 11.2028 17.7556 11.0055 17.3663C10.8082 16.977 10.3335 16.817 9.94423 17.0143C9.55491 17.2116 9.39492 17.6863 9.59224 18.0756C9.78957 18.4649 10.2642 18.6249 10.6535 18.4276Z" fill="#EDF0F4"/>
<path d="M15.4533 11.4999C15.048 12.1238 15.2187 12.9558 15.8426 13.3611C16.4666 13.7664 17.2986 13.5958 17.7039 12.9718C18.1092 12.3478 17.9385 11.5159 17.3146 11.1105C17.0959 10.9666 16.8399 10.8919 16.5786 10.8919C16.1253 10.8919 15.704 11.1212 15.4533 11.4999Z" fill="#EDF0F4"/>
<path d="M17.7945 17.1316C17.4586 16.465 16.6479 16.1983 15.9866 16.5343C15.32 16.8703 15.0533 17.6809 15.3893 18.3422C15.7253 19.0089 16.5359 19.2755 17.1972 18.9395C17.8585 18.6089 18.1305 17.8089 17.7999 17.1423C17.7999 17.1369 17.7999 17.1369 17.7945 17.1316Z" fill="#EDF0F4"/>
<path d="M20.1464 17.0356C19.7785 16.7956 19.2878 16.897 19.0532 17.2649C18.8132 17.6329 18.9145 18.1236 19.2825 18.3582C19.6505 18.5982 20.1411 18.4969 20.3758 18.1289C20.6157 17.7662 20.5144 17.2756 20.1464 17.0356Z" fill="#EDF0F4"/>
<path d="M22.7277 15.0144C22.749 14.6411 22.4663 14.3264 22.093 14.3051C21.7197 14.2837 21.405 14.5664 21.3837 14.9397C21.3624 15.313 21.645 15.6277 22.0184 15.649C22.3863 15.6703 22.7063 15.3824 22.7277 15.0144Z" fill="#EDF0F4"/>
<path d="M24.5889 14.5344C24.3489 14.5184 24.1409 14.705 24.1303 14.945C24.1196 15.185 24.3009 15.393 24.5409 15.4037C24.7809 15.4197 24.9836 15.233 24.9996 14.993C25.0102 14.753 24.8289 14.5504 24.5889 14.5344Z" fill="#EDF0F4"/>
<path d="M22.8343 18.8542C22.5783 18.6889 22.237 18.7582 22.0663 19.0142C21.901 19.2702 21.9704 19.6115 22.2263 19.7822C22.4823 19.9475 22.8236 19.8782 22.9943 19.6222C23.165 19.3662 23.0903 19.0195 22.8343 18.8542Z" fill="#EDF0F4"/>
<path d="M10.4722 22.918C10.2695 22.7847 10.0029 22.8434 9.86956 23.0407C9.73623 23.2433 9.7949 23.51 9.99222 23.6433C10.1949 23.7766 10.4615 23.718 10.5949 23.5207C10.7335 23.3233 10.6749 23.0513 10.4722 22.918Z" fill="#EDF0F4"/>
<path d="M19.6025 22.8754C19.3891 22.982 19.3038 23.2487 19.4105 23.462C19.5171 23.6753 19.7838 23.7606 19.9971 23.654C20.2104 23.5473 20.2958 23.286 20.1891 23.0727C20.0824 22.854 19.8211 22.7634 19.6025 22.8754C19.6025 22.8754 19.6078 22.8754 19.6025 22.8754Z" fill="#EDF0F4"/>
<path d="M14.5467 18.4809C14.952 17.8569 14.7813 17.0249 14.1574 16.6143C13.5334 16.209 12.7014 16.3796 12.2908 17.0036C11.8801 17.6276 12.0561 18.4595 12.6801 18.8702C12.8988 19.0142 13.1547 19.0889 13.4161 19.0889C13.8747 19.0942 14.296 18.8649 14.5467 18.4809Z" fill="#EDF0F4"/>
<path d="M11.8535 20.5448C11.5442 20.3421 11.1228 20.4275 10.9202 20.7368C10.7175 21.0461 10.8029 21.4674 11.1122 21.6701C11.4215 21.8727 11.8428 21.7874 12.0455 21.4781C12.2535 21.1688 12.1681 20.7474 11.8535 20.5448Z" fill="#EDF0F4"/>
<path d="M14.9947 23.1207C14.6907 23.1047 14.4294 23.3393 14.408 23.6433C14.3867 23.9473 14.6267 24.2086 14.9307 24.23C15.2347 24.246 15.496 24.0166 15.5173 23.7126C15.5333 23.4033 15.2987 23.142 14.9947 23.1207Z" fill="#EDF0F4"/>
<path d="M15 19.6382C14.5627 19.6115 14.1894 19.9475 14.168 20.3848C14.1414 20.8221 14.4773 21.1954 14.9147 21.2168C15.352 21.2381 15.7253 20.9074 15.7466 20.4701C15.7733 20.0381 15.4373 19.6595 15 19.6382Z" fill="#EDF0F4"/>
<path d="M18.2372 20.4915C17.9065 20.6621 17.7732 21.0674 17.9439 21.3981C18.1145 21.7287 18.5198 21.8621 18.8505 21.6914C19.1812 21.5261 19.3145 21.1208 19.1492 20.7901C18.9785 20.4595 18.5732 20.3208 18.2372 20.4915Z" fill="#EDF0F4"/>
</svg>
