<svg width="32" height="32" viewBox="0 0 32 32" fill="none" xmlns="http://www.w3.org/2000/svg">
<path d="M16 32C24.8366 32 32 24.8366 32 16C32 7.16345 24.8366 0 16 0C7.16345 0 0 7.16345 0 16C0 24.8366 7.16345 32 16 32Z" fill="#D1FF52"/>
<path d="M22.4404 16.6779H11.4644V20.3367H22.4404V16.6779Z" fill="#040000"/>
<path d="M26.0993 11.1891H22.4404V16.6777H26.0993V11.1891Z" fill="#040000"/>
<path d="M11.4643 20.3367H7.80478V21.2519V22.1664V25.8247H11.4637V22.1664H11.4643V20.3367Z" fill="#040000"/>
<path d="M22.4403 7.53015H11.4643H10.9382H7.80478V14.8479V16.0159V16.6777H11.4643V16.0159V14.8479V11.189H22.4403V7.53015Z" fill="#040000"/>
<path d="M22.4404 16.6779H11.4644V20.3367H22.4404V16.6779Z" fill="#040000"/>
</svg>
