<svg width="30" height="30" viewBox="0 0 30 30" fill="none" xmlns="http://www.w3.org/2000/svg">
<circle cx="15" cy="15" r="15" fill="#7F6EE9"/>
<path d="M15.3326 3.78195V3.7926C15.3433 3.84585 15.3433 3.90975 15.3433 3.97365V11.6521C15.3326 11.6947 15.3007 11.7054 15.2687 11.7267C15.0451 11.8332 14.8321 11.929 14.6084 12.0249C14.2996 12.1633 13.9801 12.3124 13.6712 12.4509L12.553 12.9621C12.2442 13.1005 11.9353 13.239 11.6371 13.3774C11.275 13.5478 10.9023 13.7076 10.5402 13.878C10.2314 14.0164 9.92252 14.1655 9.60302 14.3039C9.34743 14.4211 9.09183 14.5276 8.84689 14.6447C8.82559 14.6554 8.80429 14.666 8.78299 14.666C8.77234 14.666 8.77234 14.666 8.76169 14.6554L9.04923 14.1761C9.60302 13.2603 10.1462 12.355 10.7 11.4391C11.2857 10.4594 11.8821 9.47959 12.4678 8.49981C13.011 7.59458 13.5647 6.68934 14.1079 5.78411C14.5019 5.12382 14.9066 4.46354 15.3007 3.80325C15.3113 3.78195 15.322 3.7713 15.322 3.75H15.3326C15.322 3.76065 15.3326 3.7713 15.3326 3.78195Z" fill="#F3F3F3"/>
<path d="M21.8706 14.6554L21.8812 14.6661L20.3157 15.5926L15.3955 18.5C15.3742 18.5106 15.3529 18.5213 15.3423 18.5319C15.3103 18.5319 15.3103 18.5 15.3103 18.4893V18.3935V11.8119C15.3103 11.78 15.3103 11.7374 15.321 11.7054C15.3316 11.6628 15.3636 11.6735 15.3955 11.6841C15.5339 11.748 15.683 11.8119 15.8215 11.8758C16.2368 12.0675 16.6522 12.2592 17.0675 12.4403C17.4296 12.6 17.7811 12.7704 18.1431 12.9301C18.5052 13.0899 18.8673 13.2603 19.2294 13.42C19.5383 13.5585 19.8578 13.7076 20.1666 13.846C20.4755 13.9845 20.7949 14.1336 21.1038 14.272C21.3487 14.3785 21.5937 14.4957 21.8386 14.6022C21.8386 14.6341 21.8493 14.6448 21.8706 14.6554Z" fill="#8A8DA7"/>
<path d="M15.3317 25.1454C15.3317 25.1561 15.321 25.1667 15.321 25.1774H15.3104C15.3104 25.1561 15.2891 25.1454 15.2784 25.1241C14.6182 24.1976 13.9579 23.2604 13.2976 22.3339C12.6266 21.386 11.9451 20.4276 11.2741 19.4797C10.6245 18.5638 9.9642 17.6373 9.31456 16.7214C9.14417 16.4765 8.97377 16.2422 8.80337 15.9972C8.79272 15.9759 8.78207 15.9653 8.76077 15.9333C8.79272 15.9333 8.81402 15.9546 8.82467 15.9653C9.7512 16.5084 10.6671 17.0516 11.5936 17.5947C12.6586 18.2231 13.7129 18.8514 14.7779 19.4797L15.321 19.7992C15.3423 19.8205 15.3423 19.8418 15.3423 19.8631V24.9963C15.3423 25.0496 15.3423 25.1028 15.3317 25.1454Z" fill="#F3F3F3"/>
<path d="M8.75006 14.6767V14.6661C9.09085 14.517 9.421 14.3572 9.76179 14.2081C10.1984 14.0058 10.6351 13.8141 11.0717 13.6117C11.4019 13.4626 11.7427 13.3029 12.0728 13.1538C12.5627 12.9301 13.0419 12.7171 13.5318 12.4935C13.862 12.3444 14.1921 12.1953 14.5329 12.0356C14.7672 11.9291 15.0121 11.8226 15.2464 11.7161C15.2677 11.7054 15.2997 11.6948 15.3103 11.6735C15.321 11.6735 15.321 11.6841 15.3103 11.6948V18.4574C15.3103 18.4893 15.2997 18.5213 15.321 18.5426C15.2997 18.5745 15.2784 18.5426 15.2677 18.5319C15.1719 18.4787 15.076 18.4254 14.9802 18.3615C12.9248 17.1475 10.8587 15.9227 8.80331 14.7087C8.79266 14.698 8.77136 14.6874 8.75006 14.6767Z" fill="#C5C8D9"/>
<path d="M21.8493 15.9333H21.86C21.86 15.9546 21.8387 15.9759 21.828 15.9972C19.8685 18.7555 17.9089 21.5245 15.9494 24.2828C15.747 24.5703 15.534 24.8579 15.3317 25.1454C15.321 25.1348 15.321 25.1241 15.321 25.1135V25.0496V19.8844V19.7886C15.7683 19.5223 16.2049 19.2667 16.6522 19.0005C18.3775 17.9781 20.1028 16.9664 21.8174 15.944C21.828 15.9546 21.8387 15.944 21.8493 15.9333Z" fill="#C5C8D9"/>
<path d="M15.321 11.6947V11.6734V11.6095V3.87777C15.321 3.84582 15.3104 3.82452 15.3317 3.79257C17.4936 7.38155 19.6555 10.9599 21.8067 14.5489C21.828 14.5808 21.86 14.6234 21.8706 14.666C21.7215 14.6128 21.5831 14.5382 21.4446 14.4743C21.2743 14.3998 21.0932 14.3146 20.9228 14.24C20.8163 14.1868 20.6992 14.1442 20.5927 14.0909C20.4116 14.0057 20.2306 13.9312 20.0495 13.846C19.943 13.8034 19.8365 13.7501 19.73 13.6969L19.0271 13.3774C18.91 13.3241 18.7928 13.2709 18.6651 13.2176L18.1539 12.994C18.0474 12.9514 17.9409 12.8981 17.8344 12.8449L17.1315 12.5254C17.0143 12.4722 16.8972 12.4189 16.7694 12.3657L16.2582 12.142C16.141 12.0888 16.0345 12.0355 15.9174 11.9823C15.7151 11.8864 15.5127 11.7906 15.2997 11.7054C15.3317 11.6947 15.321 11.6947 15.321 11.6947Z" fill="#C5C8D9"/>
</svg>
