<svg width="24" height="24" viewBox="0 0 24 24" fill="none" xmlns="http://www.w3.org/2000/svg">
<path d="M12.8523 3.70331H3.95223C3.67567 3.70331 3.4494 3.92958 3.4494 4.20614V10.0892C3.4494 10.3658 3.67567 10.5921 3.95223 10.5921H12.8523C13.1288 10.5921 13.3551 10.3658 13.3551 10.0892V4.20614C13.3551 3.92958 13.1288 3.70331 12.8523 3.70331ZM12.3495 9.58641H4.45506V4.70897H12.3495V9.58641Z" fill="white"/>
<path d="M15.0647 22.5V21.7549V13.7096H15.8843C16.6285 13.7096 17.2319 14.3181 17.2269 15.0622C17.2269 15.0673 17.2269 15.0673 17.2269 15.0723V16.4651C17.2269 17.9384 18.4186 19.1301 19.8919 19.1301C21.3652 19.1301 22.5569 17.9384 22.5569 16.4651V8.51039C22.5569 7.68576 22.2502 6.89129 21.687 6.28287L17.7549 1.80267L17.0006 2.4664L20.0478 5.94094C18.9466 6.12699 18.2024 7.16784 18.3884 8.26904C18.5493 9.24452 19.3941 9.95854 20.3847 9.95854C20.802 9.95351 21.2093 9.8278 21.5512 9.58644V16.4651C21.5512 17.3803 20.807 18.1245 19.8919 18.1245C18.9767 18.1245 18.2326 17.3803 18.2326 16.4651V15.0723C18.2376 13.77 17.1867 12.709 15.8894 12.704H15.8843H15.0647V3.33629C15.0647 2.18985 14.1395 1.2395 12.9931 1.2395H3.65053C2.50409 1.2395 1.58894 2.19487 1.58894 3.33629V21.7549H0.502828C0.226273 21.7549 0 21.9812 0 22.2577C0 22.5343 0.226273 22.7605 0.502828 22.7605H15.0647C15.0647 22.7605 15.0647 22.7766 15.0647 22.5ZM20.3847 8.94785C19.8215 8.94785 19.369 8.49028 19.369 7.93214C19.369 7.374 19.8265 6.91643 20.3847 6.91643C20.9478 6.91643 21.4004 7.374 21.4004 7.93214C21.4004 8.49028 20.9428 8.94785 20.3847 8.94785ZM14.0591 21.7549H2.59459V3.33629C2.59459 2.74296 3.0572 2.24516 3.65053 2.24516H12.9931C13.5864 2.24516 14.0591 2.74799 14.0591 3.33629V21.7549Z" fill="white"/>
</svg>
