<svg width="30" height="30" viewBox="0 0 30 30" fill="none" xmlns="http://www.w3.org/2000/svg">
<path d="M15 30C23.2843 30 30 23.2843 30 15C30 6.71573 23.2843 0 15 0C6.71573 0 0 6.71573 0 15C0 23.2843 6.71573 30 15 30Z" fill="#767EA1"/>
<path d="M25.0059 15C25.0059 13.7829 24.0216 12.8163 22.8221 12.8163C22.2316 12.8163 21.6944 13.0488 21.3007 13.4248C19.7972 12.3508 17.7386 11.6528 15.4474 11.5634L16.4497 6.87358L19.7075 7.57158C19.7435 8.39503 20.4235 9.05733 21.265 9.05733C22.1241 9.05733 22.8221 8.35933 22.8221 7.49984C22.8221 6.64069 22.1241 5.94269 21.265 5.94269C20.6564 5.94269 20.1192 6.3007 19.8686 6.81986L16.2352 6.05012C16.1277 6.03211 16.0203 6.05012 15.9486 6.10384C15.8591 6.15756 15.8054 6.24698 15.7877 6.35441L14.6777 11.5811C12.3508 11.6528 10.2564 12.3508 8.73499 13.4429C8.32523 13.0515 7.78017 12.8335 7.21354 12.8343C5.99637 12.8343 5.02979 13.8186 5.02979 15.018C5.02979 15.9129 5.56663 16.6646 6.31868 17.0049C6.28265 17.2195 6.26497 17.4343 6.26497 17.6672C6.26497 21.0321 10.185 23.7711 15.018 23.7711C19.8509 23.7711 23.771 21.0501 23.771 17.6672C23.771 17.4524 23.753 17.2195 23.7173 17.0049C24.469 16.6646 25.0059 15.8949 25.0059 15ZM10.0059 16.5572C10.0059 15.698 10.7039 15 11.5634 15C12.4225 15 13.1205 15.698 13.1205 16.5572C13.1205 17.4163 12.4225 18.1147 11.5634 18.1147C10.7039 18.1323 10.0059 17.4163 10.0059 16.5572ZM18.7232 20.6921C17.6492 21.7662 15.6086 21.8379 15.018 21.8379C14.4094 21.8379 12.3688 21.7481 11.3125 20.6921C11.1516 20.531 11.1516 20.2804 11.3125 20.1192C11.4736 19.9584 11.7242 19.9584 11.8853 20.1192C12.5657 20.7996 13.9977 21.0321 15.018 21.0321C16.0383 21.0321 17.488 20.7996 18.1503 20.1192C18.3115 19.9584 18.562 19.9584 18.7232 20.1192C18.8663 20.2804 18.8663 20.531 18.7232 20.6921ZM18.4366 18.1323C17.5774 18.1323 16.8794 17.4343 16.8794 16.5752C16.8794 15.716 17.5774 15.018 18.4366 15.018C19.2961 15.018 19.9941 15.716 19.9941 16.5752C19.9941 17.4163 19.2961 18.1323 18.4366 18.1323Z" fill="#1E1F25"/>
</svg>
