<svg width="40" height="40" viewBox="0 0 40 40" fill="none" xmlns="http://www.w3.org/2000/svg">
<path d="M20.0892 23.6343C20.0892 23.5848 20.0892 23.5354 20.0892 23.4859L18.4563 22.6948H13.0629L13.1123 25.3648L20.0892 23.6343Z" fill="#00D632"/>
<path d="M13.0135 19.0361C13.2609 19.0361 13.4588 19.135 13.6567 19.2833L17.4668 17.1078C17.3678 16.91 17.3183 16.6628 17.3183 16.3661C17.3183 16.0694 17.3678 15.8222 17.5162 15.6244L13.063 12.905V19.0361H13.0135Z" fill="#00D632"/>
<path d="M23.5034 18.6401C23.4044 18.739 23.256 18.7885 23.1075 18.7885C23.058 18.7885 23.0086 18.7885 23.0086 18.7885L22.7117 19.4312H24.6909L23.5034 18.6401Z" fill="#00D632"/>
<path d="M20.2872 22.6948H18.9512L20.1882 23.2882C20.2377 23.2387 20.2872 23.1398 20.3861 23.1398L20.2872 22.6948Z" fill="#00D632"/>
<path d="M17.2688 28.381C17.5162 28.381 17.7141 28.4304 17.9615 28.5293L20.3366 24.0299C20.2871 23.9805 20.2377 23.931 20.1882 23.8816L13.2609 25.6121L16.2297 28.826C16.4771 28.5293 16.873 28.381 17.2688 28.381Z" fill="#00D632"/>
<path d="M22.8108 18.6897C22.6623 18.5909 22.5634 18.4425 22.5634 18.2447C22.5634 18.1953 22.5634 18.1953 22.5634 18.1459L20.2872 17.157C20.0893 17.5525 19.743 17.8492 19.3471 17.9481L19.6935 19.4314H22.4149L22.8108 18.6897Z" fill="#00D632"/>
<path d="M20.6334 23.0409C20.6829 23.0409 20.7323 23.0409 20.7818 23.0904L20.9795 22.6948H20.5345L20.6334 23.0409Z" fill="#00D632"/>
<path d="M19.0008 8.60327L13.1126 12.7071L17.5659 15.4265C17.8628 14.9815 18.3576 14.7343 18.9019 14.7343L19.2977 8.7516C19.1988 8.70216 19.0503 8.65272 19.0008 8.60327Z" fill="#00D632"/>
<path d="M17.5162 17.3052L13.8051 19.4313H19.5449L19.1985 17.9974C19.0996 17.9974 19.0006 18.0468 18.9016 18.0468C18.3079 17.9974 17.8131 17.7502 17.5162 17.3052Z" fill="#00D632"/>
<path d="M4.35434 9.19653C4.30486 9.34486 4.15642 9.4932 3.9585 9.54264V15.2781C4.05746 15.2781 4.15642 15.3276 4.25538 15.377L7.52112 11.026C7.22423 10.7293 7.02631 10.3337 7.02631 9.88875C7.02631 9.78986 7.02631 9.74042 7.02631 9.64153L4.35434 9.19653Z" fill="#00D632"/>
<path d="M19.8418 8.35596C19.7923 8.50429 19.6439 8.65262 19.4955 8.70206L19.0996 14.7342C19.5944 14.7837 19.9903 15.0803 20.2871 15.4759L27.3134 11.5698C27.2145 11.372 27.165 11.1248 27.165 10.8776C27.165 10.7787 27.165 10.6304 27.2145 10.5315L19.8418 8.35596Z" fill="#00D632"/>
<path d="M27.4124 11.718L20.3861 15.6241C20.4851 15.8219 20.5346 16.0691 20.5346 16.3163C20.5346 16.5141 20.4851 16.7118 20.4356 16.8602L22.7117 17.8491C22.8107 17.7007 22.9591 17.6018 23.157 17.6018C23.256 17.6018 23.3055 17.6513 23.4044 17.6513L27.7588 11.9652C27.6103 11.9652 27.5114 11.8663 27.4124 11.718Z" fill="#00D632"/>
<path d="M11.6776 19.2338L12.172 19.4316H12.3203C12.4192 19.2833 12.5675 19.1349 12.7653 19.0855V13.0039L11.6776 14.1906V19.2338Z" fill="#00D632"/>
<path d="M11.6776 30.1114L15.5865 30.0126C15.5865 29.617 15.7845 29.2215 16.0319 28.9248L13.063 25.7109L11.6776 28.6776V30.1114Z" fill="#00D632"/>
<path d="M11.6776 25.3154L12.9136 25.3648L12.8642 22.6948H11.6776V25.3154Z" fill="#00D632"/>
<path d="M12.0239 4.59841L12.964 12.46L13.0135 12.4105V12.46L18.8522 8.35615C18.8027 8.3067 18.8027 8.20781 18.8027 8.15837C18.8027 8.05948 18.8522 8.01004 18.8522 7.91115L12.2713 4.40063C12.2218 4.49952 12.1228 4.54897 12.0239 4.59841Z" fill="#00D632"/>
<path d="M11.6776 13.8443L12.7159 12.7566L11.6776 12.0149V13.8443Z" fill="#00D632"/>
<path d="M11.6776 4.59839V11.7183L12.7653 12.46L11.8259 4.59839C11.7764 4.59839 11.727 4.59839 11.6776 4.59839Z" fill="#00D632"/>
<path d="M11.6776 28.1336L12.8642 25.6119L11.6776 25.5625V28.1336Z" fill="#00D632"/>
<path d="M3.81002 16.9592L3.21625 19.9258C3.31521 19.9752 3.36469 20.0247 3.41417 20.0741L7.71901 17.9975C7.71901 17.948 7.71901 17.948 7.71901 17.8986C7.71901 17.8491 7.71901 17.8491 7.71901 17.7997L4.65119 16.5142C4.50275 16.7614 4.25535 16.9592 3.90898 16.9592C3.81002 16.9592 3.81002 16.9592 3.81002 16.9592Z" fill="#00D632"/>
<path d="M22.1675 1.08765C21.8706 1.38431 21.4748 1.58209 20.9799 1.58209C20.9305 1.58209 20.8315 1.58209 20.782 1.58209L19.5945 7.76257C19.644 7.76257 19.6934 7.81201 19.6934 7.81201L25.2848 4.3015C25.2848 4.25205 25.2353 4.20261 25.2353 4.10372C25.2353 4.00484 25.2848 3.90595 25.3343 3.8565L22.1675 1.08765Z" fill="#00D632"/>
<path d="M3.85953 31.1496L5.59137 26.6997C5.245 26.5513 4.89863 26.2052 4.75019 25.8591L2.52355 26.6502C2.52355 26.6997 2.57303 26.7491 2.57303 26.7986C2.57303 27.0952 2.42459 27.3424 2.17719 27.5402L3.81005 31.1496C3.81005 31.1496 3.81005 31.1496 3.85953 31.1496Z" fill="#00D632"/>
<path d="M2.96874 20.964L1.97913 26.0073C2.17705 26.0567 2.37497 26.2545 2.47393 26.4523L4.70057 25.6612C4.65109 25.5128 4.65109 25.3645 4.65109 25.2162C4.65109 24.6723 4.8985 24.2273 5.29434 23.9306L3.21615 20.9146C3.16667 20.964 3.06771 20.964 2.96874 20.964Z" fill="#00D632"/>
<path d="M4.45331 15.4762C4.60175 15.6245 4.70071 15.8717 4.70071 16.0695C4.70071 16.1684 4.65123 16.2178 4.65123 16.2673L7.71905 17.5528C7.76853 17.4539 7.91697 17.3551 8.06541 17.3056L8.41178 11.4218C8.16437 11.3723 7.91697 11.2735 7.71905 11.0757L4.45331 15.4762Z" fill="#00D632"/>
<path d="M14.102 36.0941L20.1881 36.8852C20.2376 36.6875 20.3366 36.5391 20.5345 36.4402L17.912 31.5453C17.7141 31.6442 17.4667 31.6936 17.2193 31.6936C16.9224 31.6936 16.675 31.5947 16.4276 31.4958L13.8051 35.6986C14.003 35.748 14.102 35.8964 14.102 36.0941Z" fill="#00D632"/>
<path d="M7.47168 26.3535L8.41111 27.4413V25.4141H7.91667C7.86723 25.7602 7.7189 26.1063 7.47168 26.3535Z" fill="#00D632"/>
<path d="M8.41174 18.3438C8.36226 18.3932 8.2633 18.3932 8.16433 18.3932C8.11485 18.3932 8.11485 18.3932 8.11485 18.3932L6.77887 23.6342C7.02627 23.7331 7.27368 23.8815 7.4716 24.0792L8.41174 23.2881V18.3438Z" fill="#00D632"/>
<path d="M5.4429 23.7826C5.6903 23.6343 5.98719 23.5354 6.28408 23.5354C6.38304 23.5354 6.482 23.5354 6.58096 23.5848L7.91694 18.2943C7.86746 18.2449 7.81798 18.1954 7.7685 18.146L3.51315 20.2226C3.51315 20.2721 3.56263 20.3215 3.56263 20.371C3.56263 20.5193 3.51315 20.6182 3.41418 20.7171L5.4429 23.7826Z" fill="#00D632"/>
<path d="M8.41158 14.9814L8.26324 17.3548C8.31269 17.3548 8.36213 17.3548 8.41158 17.4042V14.9814Z" fill="#00D632"/>
<path d="M8.41169 30.6059V27.7876L7.27363 26.5515C6.97674 26.7493 6.63038 26.8976 6.23453 26.8976C6.08609 26.8976 5.88817 26.8482 5.73972 26.7987L4.05737 31.2487C4.10685 31.2981 4.20582 31.3476 4.2553 31.397L8.41169 30.6059Z" fill="#00D632"/>
<path d="M25.928 33.0778L28.3031 34.9566V33.0283L25.9775 32.9294C26.0269 32.9789 25.9775 33.0283 25.928 33.0778Z" fill="#00D632"/>
<path d="M13.5577 35.5998C13.6072 35.5998 13.6072 35.5998 13.6072 35.5998L16.2297 31.3971C15.8338 31.1499 15.5864 30.7049 15.5369 30.2104L11.6279 30.3093V31.8915L13.2608 35.5998C13.4092 35.5998 13.5082 35.5998 13.5577 35.5998Z" fill="#00D632"/>
<path d="M19.0005 7.76261C19.0995 7.71317 19.1985 7.61428 19.3469 7.61428H19.3964L20.5839 1.48324C20.1386 1.38435 19.7427 1.08769 19.5448 0.692139L12.3701 3.95543C12.3701 4.00488 12.3701 4.05432 12.3701 4.05432C12.3701 4.10377 12.3701 4.15321 12.3206 4.20265L19.0005 7.76261Z" fill="#00D632"/>
<path d="M11.6776 35.8965L13.063 35.9954C13.063 35.8965 13.1125 35.847 13.162 35.7976L11.6776 32.4849V35.8965Z" fill="#00D632"/>
<path d="M28.3032 28.9247L26.4724 27.8369C26.324 28.0347 26.1261 28.1336 25.8292 28.183L25.5323 32.2374C25.7797 32.2869 25.9776 32.4352 26.0271 32.6824L28.3032 32.7813V28.9247Z" fill="#00D632"/>
<path d="M8.16434 35.1053C8.2633 35.0064 8.36226 34.957 8.46122 34.957V30.8037L4.40379 31.5948C4.40379 31.6443 4.40379 31.6443 4.40379 31.6937C4.40379 31.7431 4.40379 31.842 4.35431 31.8915L8.16434 35.1053Z" fill="#00D632"/>
<path d="M26.1259 4.49948L28.2535 9.29554C28.303 9.29554 28.303 9.29554 28.3525 9.29554V2.52173L26.3733 3.90616C26.4227 3.9556 26.4227 4.05449 26.4227 4.10393C26.3733 4.25226 26.2743 4.4006 26.1259 4.49948Z" fill="#00D632"/>
<path d="M8.41104 23.5845L7.61993 24.2272C7.81771 24.4745 7.9166 24.8206 7.9166 25.1172H8.41104V23.5845Z" fill="#00D632"/>
<path d="M31.5688 20.4697L33.0532 18.2447C32.9048 18.1458 32.8058 17.948 32.8058 17.7502L31.5688 17.8491V20.4697Z" fill="#00D632"/>
<path d="M33.647 18.4426C33.4985 18.4426 33.3996 18.3932 33.2511 18.3438L31.5688 20.8654V23.6342L35.1809 25.8098C35.3788 25.5626 35.6757 25.3648 35.9726 25.2659L33.6965 18.3932C33.6965 18.4426 33.647 18.4426 33.647 18.4426Z" fill="#00D632"/>
<path d="M31.5688 14.8826V17.602L32.7563 17.5031C32.7563 17.2559 32.8553 17.0581 33.0037 16.9592L31.5688 14.8826Z" fill="#00D632"/>
<path d="M31.5688 23.9309V26.947L34.785 26.7987C34.785 26.502 34.884 26.2548 35.0324 26.0076L31.5688 23.9309Z" fill="#00D632"/>
<path d="M34.8345 26.9961L31.5688 27.1444V30.5561L35.3293 32.781C35.3788 32.7316 35.4283 32.7316 35.4778 32.6821C35.5767 32.5338 35.6757 32.4349 35.7747 32.2866L36.4179 28.4794C35.5767 28.4794 34.884 27.8366 34.8345 26.9961Z" fill="#00D632"/>
<path d="M33.8944 5.63656C33.1522 4.94435 32.3605 4.30158 31.5688 3.70825V7.96042L33.8944 5.63656Z" fill="#00D632"/>
<path d="M35.1809 32.9789L31.5688 30.8528V32.9294L35.1809 32.9789C35.1809 33.0283 35.1809 32.9789 35.1809 32.9789Z" fill="#00D632"/>
<path d="M31.5688 10.9271V14.5365L33.2017 16.8604C33.3006 16.811 33.4491 16.7615 33.5975 16.7615C33.7954 16.7615 33.9439 16.8604 34.0923 16.9593L38.4961 12.5588C38.2487 11.9655 38.0013 11.4216 37.7044 10.8777L31.5688 10.9271Z" fill="#00D632"/>
<path d="M39.8816 17.6514C39.6837 15.9209 39.2878 14.2892 38.6446 12.707L34.2903 17.0581C34.3892 17.157 34.4387 17.3053 34.4387 17.5031L39.8816 17.6514Z" fill="#00D632"/>
<path d="M26.2248 0.989014L25.9774 3.5601C26.0764 3.60954 26.1259 3.60954 26.1753 3.65898L28.303 2.17567V1.78012C27.6598 1.48345 26.967 1.23623 26.2248 0.989014Z" fill="#00D632"/>
<path d="M8.41175 36.2919C8.21382 36.1436 8.0159 36.0447 7.86746 35.8963C7.86746 35.8469 7.86746 35.7975 7.86746 35.748C7.86746 35.5502 7.91694 35.4019 8.0159 35.303L4.25535 32.0892C4.20587 32.1386 4.20587 32.1386 4.15639 32.1881C3.95847 31.8914 3.71107 31.6442 3.51314 31.3475L3.56262 31.2981L1.92975 27.6392C1.83079 27.6392 1.78131 27.6887 1.68235 27.6887C1.63287 27.6887 1.58339 27.6887 1.53391 27.6887C1.2865 27.0953 1.08858 26.502 0.890656 25.9087L1.18754 26.1559C1.33598 26.057 1.53391 25.9581 1.73183 25.9581H1.78131L2.77093 20.9149C2.67197 20.8654 2.57301 20.7665 2.52352 20.6676L0.0989618 21.5576C0.0989618 21.4587 0.0989618 21.4093 0.0989618 21.3104L2.47404 20.4204C2.47404 20.4204 2.47404 20.4204 2.47404 20.371C2.47404 20.1732 2.57301 20.0249 2.67197 19.926L0.247404 16.9593C0.247404 16.8605 0.296885 16.7616 0.296885 16.6627L2.86989 19.8271C2.91937 19.8271 2.91937 19.8271 2.96885 19.8271L3.56262 16.8605C3.21626 16.7616 2.96885 16.4155 2.96885 16.0693V16.0199L0.445328 15.5749C0.445328 15.5255 0.494809 15.4266 0.494809 15.3771L3.01833 15.8221C3.11729 15.5255 3.3647 15.2782 3.71107 15.2288V9.49331C3.66158 9.49331 3.6121 9.44387 3.56262 9.44387L2.17716 10.8777C2.3256 10.6305 2.42456 10.3833 2.57301 10.1361L3.41418 9.29554C3.3647 9.19665 3.31522 9.09776 3.31522 8.99887C3.41418 8.85054 3.51314 8.65277 3.66158 8.50444C3.71107 8.45499 3.81003 8.45499 3.85951 8.45499C3.90899 8.45499 3.95847 8.45499 4.00795 8.50444L4.75016 7.12001C4.94809 6.87279 5.14601 6.62557 5.34393 6.42779L4.20587 8.60332C4.30484 8.70221 4.4038 8.85054 4.4038 8.99887L7.12525 9.44387C7.27369 8.94943 7.66953 8.55388 8.16434 8.3561L7.22421 4.64781C7.27369 4.59837 7.37265 4.54893 7.42213 4.49948L8.36227 8.25722H8.41175V3.65894C3.31522 7.31778 0 13.251 0 19.9754C0 26.6998 3.31522 32.6825 8.41175 36.2919Z" fill="#00D632"/>
<path d="M21.6727 37.676C21.5242 37.8738 21.2768 37.9727 21.0294 37.9727C20.9304 37.9727 20.8315 37.9232 20.7325 37.9232L19.6934 39.9504C19.7924 39.9504 19.8913 39.9504 19.9903 39.9504C21.5242 39.9504 22.9592 39.7527 24.3941 39.456L21.6727 37.676Z" fill="#00D632"/>
<path d="M31.5688 33.1274V36.2919C32.8058 35.4019 33.9439 34.3635 34.983 33.2263L31.5688 33.1274Z" fill="#00D632"/>
<path d="M31.5688 8.25711V10.7293L37.6549 10.6304C36.7148 8.85043 35.4778 7.21878 34.0428 5.78491L31.5688 8.25711Z" fill="#00D632"/>
<path d="M39.8816 17.8986L34.4387 17.7502C34.4387 17.8986 34.3892 17.9975 34.2903 18.0964L39.7332 23.0902C39.8816 22.1013 39.9806 21.063 39.9806 20.0247C40.0301 19.283 39.9806 18.5908 39.8816 17.8986Z" fill="#00D632"/>
<path d="M37.853 27.7876C37.6056 28.1831 37.1602 28.4304 36.6159 28.4798L36.0717 31.9409C36.9623 30.7542 37.7045 29.4687 38.3478 28.0843L37.853 27.7876Z" fill="#00D632"/>
<path d="M38.1002 26.5514C38.1002 26.6503 38.1496 26.7492 38.1496 26.8975C38.1496 27.1447 38.1002 27.392 37.9518 27.6392L38.3968 27.9358C38.6441 27.392 38.8418 26.8975 38.9902 26.3042L38.1002 26.5514Z" fill="#00D632"/>
<path d="M34.1914 18.2446C34.1419 18.2941 34.0429 18.3435 33.944 18.393L36.1706 25.2657C36.2696 25.2657 36.3685 25.2162 36.418 25.2162C37.1602 25.2162 37.754 25.6612 37.9519 26.3534L39.0405 26.0568C39.3374 25.1668 39.5353 24.2273 39.6838 23.2879L34.1914 18.2446Z" fill="#00D632"/>
<path d="M28.3031 24.8704L26.4723 26.7987C26.5713 26.8976 26.6207 27.0459 26.6207 27.1942L28.3031 27.0953V24.8704Z" fill="#00D632"/>
<path d="M28.3031 12.4104C28.1546 12.361 28.0062 12.3115 27.8577 12.2126L23.5034 17.8987C23.5529 17.9481 23.6024 18.047 23.6024 18.0965L28.2536 17.7998V12.4104H28.3031Z" fill="#00D632"/>
<path d="M28.303 18.0469L23.6518 18.3435C23.6518 18.393 23.6518 18.4424 23.6024 18.4919L25.0373 19.4807H28.2536V18.0469H28.303Z" fill="#00D632"/>
<path d="M25.829 4.64784C25.6806 4.64784 25.5322 4.5984 25.4332 4.49951L19.8419 8.01003C19.8419 8.05947 19.8419 8.10892 19.8913 8.15836L27.264 10.2844C27.4124 9.88889 27.7093 9.59223 28.0557 9.39446L25.928 4.5984C25.8785 4.5984 25.8785 4.64784 25.829 4.64784Z" fill="#00D632"/>
<path d="M22.6129 0.148438C22.5634 0.445101 22.4644 0.69232 22.316 0.890096L25.4828 3.65895C25.5817 3.60951 25.6312 3.56007 25.7302 3.56007L25.9776 0.93954C24.9385 0.593432 23.8004 0.296769 22.6129 0.148438Z" fill="#00D632"/>
<path d="M28.3031 22.6948H21.1778L20.9304 23.1893C21.0294 23.2387 21.0789 23.3376 21.1283 23.4859L28.3031 22.942V22.6948Z" fill="#00D632"/>
<path d="M28.3031 27.2932L26.6702 27.3921C26.6702 27.491 26.6702 27.5899 26.6207 27.6393L28.3526 28.6282V27.2932H28.3031Z" fill="#00D632"/>
<path d="M25.0375 32.5339C25.0869 32.3855 25.2354 32.3361 25.3343 32.2866L25.6312 28.1828C25.3838 28.1333 25.1364 27.9356 25.0375 27.7378L18.8524 29.7155C18.9018 29.8639 18.9018 29.9628 18.9018 30.1111C18.9018 30.2594 18.9018 30.4078 18.8524 30.5067L25.0375 32.5339Z" fill="#00D632"/>
<path d="M28.3032 23.1399L21.1285 23.6838C21.1285 23.7332 21.1285 23.7827 21.079 23.8321L25.1364 26.7493C25.2849 26.601 25.5323 26.4526 25.7797 26.4526C25.9776 26.4526 26.126 26.5021 26.2745 26.6504L28.2537 24.5738V23.1399H28.3032Z" fill="#00D632"/>
<path d="M18.7534 29.4191L24.9879 27.4413C24.9879 27.3919 24.9385 27.3424 24.9385 27.293C24.9385 27.1446 24.9879 26.9963 25.0374 26.8974L20.98 23.9802C20.881 24.0791 20.7821 24.1286 20.6336 24.1286C20.5842 24.1286 20.5347 24.1286 20.4852 24.0791L18.1101 28.6279C18.407 28.8257 18.6544 29.1224 18.7534 29.4191Z" fill="#00D632"/>
<path d="M28.303 37.6763V35.2535L25.7795 33.2758C25.6805 33.3252 25.5815 33.3746 25.4826 33.3746C25.3341 33.3746 25.2352 33.3252 25.1362 33.2263L21.6725 36.6874C21.7715 36.8357 21.821 36.9841 21.8705 37.1818L28.303 37.6763Z" fill="#00D632"/>
<path d="M20.5345 37.8244C20.2871 37.676 20.1387 37.4288 20.1387 37.1322L14.0525 36.3411C14.0031 36.44 13.9536 36.5388 13.8546 36.5883L15.8833 39.6044C17.0214 39.8516 18.2089 39.9999 19.446 39.9999L20.5345 37.8244Z" fill="#00D632"/>
<path d="M21.0295 36.2919C21.2274 36.2919 21.4253 36.3908 21.5243 36.4897L25.0374 33.0286C24.9879 32.9791 24.9879 32.8802 24.9879 32.7814C24.9879 32.7814 24.9879 32.7814 24.9879 32.7319L18.7534 30.6553C18.6049 31.0014 18.407 31.2486 18.1101 31.4464L20.6831 36.3413C20.7821 36.2919 20.881 36.2919 21.0295 36.2919Z" fill="#00D632"/>
<path d="M28.3031 38.1706V37.874L21.8211 37.3301C21.8211 37.3795 21.7717 37.4784 21.7717 37.5279L24.691 39.4562C25.9775 39.1101 27.1651 38.7145 28.3031 38.1706Z" fill="#00D632"/>
<path d="M22.2167 0.0990045C22.0683 0.0990045 21.9694 0.0495605 21.8211 0.0495605C21.9694 0.0990044 22.1178 0.0990045 22.2167 0.0990045Z" fill="#00D632"/>
<path d="M13.6568 36.6378C13.6074 36.6378 13.6074 36.6378 13.5579 36.6378C13.5084 36.6378 13.4094 36.6378 13.3599 36.5884L12.6177 38.5661C13.5579 38.9617 14.5475 39.2583 15.5371 39.4561L13.6568 36.6378Z" fill="#00D632"/>
<path d="M12.4198 38.5167L13.162 36.4895C13.063 36.3907 13.063 36.2918 13.0135 36.1929L11.6776 36.094V38.1706C11.925 38.2695 12.1724 38.4179 12.4198 38.5167Z" fill="#00D632"/>
<path d="M11.6776 3.60952C11.727 3.60952 11.727 3.60952 11.7765 3.56008L11.8755 1.73065C11.9744 1.68121 12.0239 1.68121 12.1229 1.63176L12.0239 3.60952C12.1229 3.65896 12.2218 3.70841 12.3208 3.8073L19.4955 0.543999C19.446 0.395668 19.3966 0.197892 19.3966 0.0495605C16.6751 0.148448 14.0526 0.791219 11.727 1.82954V3.60952H11.6776Z" fill="#00D632"/>
</svg>
