<svg width="24" height="24" viewBox="0 0 24 24" fill="none" xmlns="http://www.w3.org/2000/svg">
<path d="M12 0.809991C5.82564 0.809991 0.810022 5.82561 0.810022 12C0.810022 18.1744 5.82564 23.19 12 23.19C18.1744 23.19 23.19 18.1744 23.19 12C23.19 5.82561 18.1744 0.809991 12 0.809991ZM12 2.06999C17.4899 2.06999 21.93 6.51012 21.93 12C21.93 17.4899 17.4899 21.93 12 21.93C6.51015 21.93 2.07002 17.4899 2.07002 12C2.07002 6.51012 6.51015 2.06999 12 2.06999Z" fill="#5D6588" stroke="#5D6588" stroke-width="0.3"/>
<path d="M11.54 11.0399V10.5799H12.46V17.2799V17.7399H11.54V17.2799V11.0399ZM11.3353 6.05523C11.5116 5.87894 11.7507 5.77991 12 5.77991C12.2493 5.77991 12.4884 5.87894 12.6646 6.05523C12.8409 6.23151 12.94 6.4706 12.94 6.71991C12.94 6.96921 12.8409 7.2083 12.6646 7.38459C12.4884 7.56087 12.2493 7.65991 12 7.65991C11.7507 7.65991 11.5116 7.56087 11.3353 7.38459C11.159 7.2083 11.06 6.96921 11.06 6.71991C11.06 6.4706 11.159 6.23151 11.3353 6.05523Z" fill="#5D6588" stroke="#5D6588"/>
</svg>
