<svg width="30" height="30" viewBox="0 0 30 30" fill="none" xmlns="http://www.w3.org/2000/svg">
<circle cx="15" cy="15" r="15" fill="#767EA1"/>
<path fill-rule="evenodd" clip-rule="evenodd" d="M9.18981 12.0451C9.20763 11.8709 9.14053 11.6991 9.00991 11.5822L7.67991 9.98795V9.75H11.8112L15.0044 16.7145L17.8117 9.75H21.75V9.98795L20.6124 11.0726C20.5144 11.147 20.4657 11.2692 20.4859 11.3903V19.3603C20.4657 19.4808 20.5144 19.603 20.6124 19.6774L21.7233 20.762V21H16.1349V20.762L17.2862 19.6508C17.399 19.5386 17.399 19.5056 17.399 19.3337V12.8918L14.1993 20.974H13.767L10.0413 12.8918V18.3087C10.0104 18.536 10.0864 18.7657 10.2473 18.9299L11.7441 20.7355V20.974H7.5V20.7355L8.99684 18.9299C9.15716 18.7651 9.22841 18.5342 9.18981 18.3087V12.0451Z" fill="#1E1F25"/>
</svg>
