<svg width="14" height="14" viewBox="0 0 14 14" fill="none" xmlns="http://www.w3.org/2000/svg">
<path fill-rule="evenodd" clip-rule="evenodd" d="M12.8711 4.08237L12.4561 3.36231C12.1051 2.75303 11.3271 2.54284 10.717 2.89244V2.89244C10.4266 3.06352 10.08 3.11206 9.75377 3.02735C9.42752 2.94264 9.14836 2.73164 8.97785 2.44087C8.86816 2.25606 8.80922 2.04556 8.80699 1.83065V1.83065C8.81689 1.48611 8.6869 1.15223 8.44664 0.905072C8.20639 0.657917 7.87632 0.518535 7.53163 0.518677H6.69563C6.35794 0.518673 6.03417 0.653236 5.79596 0.892589C5.55775 1.13194 5.42474 1.45635 5.42637 1.79404V1.79404C5.41636 2.49124 4.84828 3.05117 4.151 3.05109C3.9361 3.04886 3.7256 2.98992 3.54078 2.88023V2.88023C2.93067 2.53064 2.1527 2.74082 1.80165 3.3501L1.35619 4.08237C1.00557 4.69089 1.21289 5.46836 1.81996 5.8215V5.8215C2.21456 6.04932 2.45765 6.47035 2.45765 6.926C2.45765 7.38164 2.21456 7.80268 1.81996 8.0305V8.0305C1.21366 8.38125 1.00611 9.15684 1.35619 9.76353V9.76353L1.77724 10.4897C1.94172 10.7865 2.21769 11.0055 2.54409 11.0983C2.87048 11.191 3.22039 11.1499 3.51637 10.984V10.984C3.80735 10.8142 4.15409 10.7677 4.47952 10.8548C4.80495 10.9418 5.08212 11.1553 5.2494 11.4477C5.35909 11.6326 5.41803 11.8431 5.42026 12.058V12.058C5.42026 12.7623 5.99126 13.3333 6.69563 13.3333H7.53163C8.23362 13.3333 8.80363 12.766 8.80699 12.0641V12.0641C8.80536 11.7253 8.9392 11.4 9.17874 11.1604C9.41827 10.9209 9.74361 10.7871 10.0824 10.7887C10.2967 10.7944 10.5064 10.8531 10.6926 10.9596V10.9596C11.3011 11.3102 12.0786 11.1029 12.4317 10.4958V10.4958L12.8711 9.76353C13.0411 9.47162 13.0878 9.12397 13.0008 8.79754C12.9137 8.47112 12.7001 8.19286 12.4073 8.0244V8.0244C12.1145 7.85593 11.9009 7.57768 11.8138 7.25125C11.7268 6.92483 11.7735 6.57717 11.9435 6.28527C12.0541 6.09218 12.2142 5.93209 12.4073 5.8215V5.8215C13.0107 5.46855 13.2176 4.69562 12.8711 4.08847V4.08847V4.08237Z" stroke="white" stroke-linecap="round" stroke-linejoin="round"/>
<ellipse cx="7.11669" cy="6.92599" rx="1.75744" ry="1.75744" stroke="white" stroke-linecap="round" stroke-linejoin="round"/>
</svg>
