<svg width="12" height="8" viewBox="0 0 12 8" fill="none" xmlns="http://www.w3.org/2000/svg">
<path d="M2.12248 1.00198L6.00248 4.88198L9.88248 1.00198C9.97506 0.9094 10.085 0.83596 10.2059 0.785855C10.3269 0.73575 10.4565 0.709961 10.5875 0.709961C10.7184 0.709961 10.8481 0.73575 10.969 0.785855C11.09 0.83596 11.1999 0.9094 11.2925 1.00198C11.3851 1.09456 11.4585 1.20447 11.5086 1.32544C11.5587 1.4464 11.5845 1.57605 11.5845 1.70698C11.5845 1.83791 11.5587 1.96756 11.5086 2.08852C11.4585 2.20949 11.3851 2.3194 11.2925 2.41198L6.70248 7.00198C6.60996 7.09469 6.50008 7.16823 6.3791 7.21841C6.25813 7.2686 6.12845 7.29443 5.99748 7.29443C5.86651 7.29443 5.73683 7.2686 5.61585 7.21841C5.49488 7.16823 5.38499 7.09469 5.29248 7.00198L0.702478 2.41198C0.609775 2.31947 0.536227 2.20958 0.486046 2.08861C0.435864 1.96763 0.410034 1.83795 0.410034 1.70698C0.410034 1.57601 0.435864 1.44633 0.486046 1.32536C0.536227 1.20438 0.609775 1.0945 0.702478 1.00198C1.09248 0.621982 1.73248 0.611982 2.12248 1.00198Z" fill="white" fill-opacity="0.32"/>
</svg>
