<svg width="8" height="12" viewBox="0 0 8 12" fill="none" xmlns="http://www.w3.org/2000/svg">
<path d="M0.996984 2.12736L4.87698 6.00736L0.996984 9.88736C0.904402 9.97994 0.830962 10.0899 0.780857 10.2108C0.730752 10.3318 0.704963 10.4614 0.704963 10.5924C0.704963 10.7233 0.730752 10.8529 0.780857 10.9739C0.830962 11.0949 0.904402 11.2048 0.996984 11.2974C1.08957 11.3899 1.19948 11.4634 1.32044 11.5135C1.4414 11.5636 1.57105 11.5894 1.70198 11.5894C1.83291 11.5894 1.96256 11.5636 2.08353 11.5135C2.20449 11.4634 2.3144 11.3899 2.40698 11.2974L6.99698 6.70736C7.08969 6.61485 7.16324 6.50496 7.21342 6.38399C7.2636 6.26301 7.28943 6.13333 7.28943 6.00236C7.28943 5.87139 7.2636 5.74171 7.21342 5.62074C7.16324 5.49976 7.08969 5.38987 6.99698 5.29736L2.40698 0.707361C2.31447 0.614657 2.20458 0.54111 2.08361 0.490928C1.96264 0.440747 1.83295 0.414917 1.70198 0.414917C1.57102 0.414917 1.44133 0.440747 1.32036 0.490928C1.19939 0.54111 1.0895 0.614657 0.996984 0.707361C0.616984 1.09736 0.606985 1.73736 0.996984 2.12736Z" fill="white"/>
</svg>
