<svg width="24" height="24" viewBox="0 0 24 24" fill="none" xmlns="http://www.w3.org/2000/svg">
<g clip-path="url(#clip0_214_643)">
<path d="M21.7321 14.7976L21.7322 14.7978C21.8896 14.9345 22.1092 14.9653 22.2991 14.8807L22.2993 14.8806C22.4878 14.7957 22.61 14.6072 22.61 14.4V11.4682C23.4347 11.2354 24.05 10.5015 24.05 9.6V1.92C24.05 0.831136 23.1689 -0.05 22.08 -0.05H10.56C9.47114 -0.05 8.59 0.831136 8.59 1.92V9.6C8.59 10.6889 9.47114 11.57 10.56 11.57H18.0412L21.7321 14.7976ZM15.84 2.875H15.7997L15.7911 2.91438L14.5911 8.43438L14.578 8.495H14.64H15.51H15.5511L15.559 8.45471L15.8361 7.055H16.8039L17.0809 8.45471L17.0889 8.495H17.13H18H18.0615L18.0489 8.43476L16.8939 2.91476L16.8856 2.875H16.845H15.84ZM16.5113 5.0966L16.7394 6.28H15.9456L16.1741 5.09446L16.1741 5.09447L16.1745 5.09219C16.1939 4.95861 16.2215 4.79244 16.2507 4.61653C16.2815 4.43101 16.3141 4.23465 16.3408 4.05427C16.3412 4.05776 16.3416 4.06125 16.342 4.06475C16.3835 4.41144 16.4321 4.81755 16.5113 5.0966ZM2.45 22.3597V20.16C2.45 19.868 2.21199 19.63 1.92 19.63C1.64565 19.63 1.41892 19.5371 1.2609 19.3791C1.10288 19.2211 1.01 18.9944 1.01 18.72V11.04C1.01 10.7657 1.10288 10.5389 1.2609 10.3809C1.41892 10.2229 1.64565 10.13 1.92 10.13H8.16H8.21V10.08V9.12V9.07H8.16H1.92C0.831136 9.07 -0.05 9.95114 -0.05 11.04V18.72C-0.05 19.6215 0.565289 20.3554 1.39 20.5882V23.52C1.39 23.7272 1.5122 23.9157 1.70071 24.0006L1.7009 24.0007C1.89084 24.0853 2.11037 24.0545 2.26778 23.9178L2.26791 23.9176L5.95878 20.69H13.44C14.5289 20.69 15.41 19.8089 15.41 18.72V12V11.95H15.36H14.4H14.35V12V18.72C14.35 18.9944 14.2571 19.2211 14.0991 19.3791C13.9411 19.5371 13.7143 19.63 13.44 19.63H5.76C5.63153 19.63 5.50727 19.6776 5.41192 19.7625C5.41185 19.7626 5.41179 19.7626 5.41173 19.7627L2.45 22.3597ZM8.27176 17.2992C8.53044 17.1415 8.73929 16.8601 8.88534 16.4536C9.03935 16.025 9.125 15.4534 9.125 14.73C9.125 13.9821 9.01499 13.2905 8.75624 12.784C8.49608 12.2747 8.08338 11.95 7.485 11.95C6.91196 11.95 6.46581 12.252 6.16537 12.7577C5.86602 13.2617 5.71 13.969 5.71 14.79C5.71 15.7299 5.86707 16.4453 6.15634 16.9274C6.44734 17.4124 6.87176 17.66 7.395 17.66C7.39882 17.66 7.40767 17.6614 7.42316 17.6668C7.43792 17.6719 7.45552 17.6796 7.47577 17.6893C7.50106 17.7014 7.5276 17.7154 7.5558 17.7302C7.5736 17.7395 7.59205 17.7492 7.61127 17.759C7.94832 17.951 8.51723 18.2439 8.94973 18.4357L8.9954 18.456L9.01569 18.4103L9.31569 17.7353L9.33908 17.6827L9.2837 17.6669C8.96634 17.5765 8.59554 17.4367 8.27176 17.2992ZM10.56 1.01H22.08C22.3543 1.01 22.5811 1.10288 22.7391 1.2609C22.8971 1.41892 22.99 1.64565 22.99 1.92V9.6C22.99 9.87435 22.8971 10.1011 22.7391 10.2591C22.5811 10.4171 22.3543 10.51 22.08 10.51C21.788 10.51 21.55 10.748 21.55 11.04V13.2397L18.5883 10.6427C18.5882 10.6426 18.5881 10.6425 18.5881 10.6425C18.4927 10.5576 18.3685 10.51 18.24 10.51H10.56C10.2857 10.51 10.0589 10.4171 9.9009 10.2591C9.74288 10.1011 9.65 9.87435 9.65 9.6V1.92C9.65 1.64565 9.74288 1.41892 9.9009 1.2609C10.0589 1.10288 10.2857 1.01 10.56 1.01ZM7.44 12.77C7.55493 12.77 7.65307 12.8211 7.73786 12.9185C7.82372 13.017 7.89457 13.1619 7.95049 13.3438C8.06225 13.7074 8.11 14.2042 8.11 14.73C8.11 15.3039 8.06221 15.827 7.95034 16.205C7.89436 16.3942 7.82341 16.5431 7.7375 16.644C7.65269 16.7436 7.55468 16.795 7.44 16.795C7.18812 16.795 7.00764 16.5859 6.8894 16.2044C6.77235 15.8268 6.725 15.3041 6.725 14.73C6.725 14.2277 6.77227 13.7311 6.8893 13.3618C7.00784 12.9878 7.18849 12.77 7.44 12.77Z" fill="#5D6588" stroke="#5D6588" stroke-width="0.1"/>
</g>
<defs>
<clipPath id="clip0_214_643">
<rect width="24" height="24" fill="white"/>
</clipPath>
</defs>
</svg>
