<svg width="24" height="24" viewBox="0 0 24 24" fill="none" xmlns="http://www.w3.org/2000/svg">
<path d="M15.1165 2.45314C14.9703 2.45741 14.8258 2.48444 14.688 2.53325L4.90869 5.99733H16.5637V3.85875C16.5637 3.67063 16.526 3.48443 16.4527 3.31116C16.3794 3.13789 16.2722 2.98108 16.1372 2.85001C16.0023 2.71895 15.8424 2.61629 15.6671 2.54812C15.4917 2.47995 15.3045 2.44766 15.1165 2.45314ZM2.81177 6.93502V20.143C2.81219 20.5158 2.96048 20.8732 3.22411 21.1369C3.48775 21.4005 3.84519 21.5488 4.21802 21.5492H19.782C20.1548 21.5488 20.5123 21.4005 20.7759 21.1369C21.0395 20.8732 21.1878 20.5158 21.1882 20.143V18.0589H17.426C16.8046 18.0582 16.2088 17.8111 15.7695 17.3717C15.3301 16.9323 15.0829 16.3366 15.0822 15.7152V13.041C15.0829 12.4197 15.3301 11.8239 15.7695 11.3845C16.2088 10.9451 16.8046 10.698 17.426 10.6973H21.1882V8.34127C21.1878 7.96844 21.0395 7.611 20.7759 7.34736C20.5123 7.08373 20.1548 6.93544 19.782 6.93502H2.81177ZM17.426 11.6348C17.0531 11.6352 16.6957 11.7835 16.4321 12.0471C16.1684 12.3108 16.0201 12.6682 16.0197 13.041V15.7152C16.0201 16.088 16.1684 16.4455 16.4321 16.7091C16.6957 16.9727 17.0531 17.121 17.426 17.1214H21.1882V11.6348H17.426Z" fill="white"/>
</svg>
