<svg width="24" height="18" viewBox="0 0 24 18" fill="none" xmlns="http://www.w3.org/2000/svg">
<path d="M22.6875 13.8449L22.7251 13.6997C22.5064 13.6432 22.2712 13.709 22.1135 13.8731L20.31 15.6749V5.63994C20.31 3.25096 18.3982 1.31674 16.041 1.20483C15.9771 1.18383 15.9111 1.17216 15.8449 1.17002L15.8449 1.16994H15.84C13.3834 1.16994 11.37 3.18335 11.37 5.63994V12.3974C11.37 14.1634 9.92776 15.6074 8.16003 15.6074C6.39231 15.6074 4.95003 14.1634 4.95003 12.3974V2.36083L6.75347 4.16426C6.91089 4.3281 7.14624 4.39444 7.36562 4.33566C7.58673 4.27879 7.75887 4.10664 7.81574 3.88554C7.87453 3.66615 7.80819 3.4308 7.64434 3.27337L4.76548 0.394503C4.64481 0.273835 4.48008 0.2075 4.31036 0.20996L4.3103 0.209961C4.1453 0.212423 3.99004 0.279057 3.87459 0.394503L0.995727 3.27337C0.83188 3.4308 0.765541 3.66615 0.824324 3.88554C0.881195 4.10664 1.05334 4.27878 1.27444 4.33565C1.49383 4.39444 1.72918 4.3281 1.88661 4.16425L3.69003 2.36083V12.3974C3.69003 14.854 5.70344 16.8674 8.16003 16.8674C10.6166 16.8674 12.63 14.854 12.63 12.3974V5.63994C12.63 3.87216 14.0723 2.42994 15.84 2.42994C17.6078 2.42994 19.05 3.87216 19.05 5.63994V15.6749L17.2464 13.8729C17.128 13.7502 16.9655 13.6818 16.7944 13.6818C16.5376 13.6818 16.3091 13.8376 16.2114 14.0746L16.2111 14.0754C16.1153 14.3112 16.1711 14.584 16.3556 14.7621L19.2346 17.641C19.4807 17.8871 19.8794 17.8871 20.1255 17.641L23.0043 14.7621C23.1683 14.6046 23.2345 14.3711 23.1757 14.15C23.119 13.9312 22.947 13.7564 22.7247 13.6996L22.6875 13.8449ZM22.6875 13.8449C22.8563 13.8881 22.9875 14.0212 23.0307 14.1881L22.2207 13.9781C22.3407 13.8524 22.5207 13.8018 22.6875 13.8449Z" fill="#5D6588" stroke="#5D6588" stroke-width="0.3"/>
</svg>
