<svg width="8" height="12" viewBox="0 0 8 12" fill="none" xmlns="http://www.w3.org/2000/svg">
<path d="M6.99747 2.12736L3.11747 6.00736L6.99747 9.88736C7.09005 9.97994 7.16349 10.0899 7.21359 10.2108C7.2637 10.3318 7.28949 10.4614 7.28949 10.5924C7.28949 10.7233 7.2637 10.8529 7.21359 10.9739C7.16349 11.0949 7.09005 11.2048 6.99747 11.2974C6.90489 11.3899 6.79498 11.4634 6.67401 11.5135C6.55305 11.5636 6.4234 11.5894 6.29247 11.5894C6.16154 11.5894 6.03189 11.5636 5.91093 11.5135C5.78996 11.4634 5.68005 11.3899 5.58747 11.2974L0.997469 6.70736C0.904765 6.61485 0.831217 6.50496 0.781036 6.38399C0.730855 6.26301 0.705024 6.13333 0.705024 6.00236C0.705024 5.87139 0.730855 5.74171 0.781036 5.62074C0.831218 5.49976 0.904765 5.38987 0.997469 5.29736L5.58747 0.707361C5.67998 0.614658 5.78987 0.54111 5.91084 0.490929C6.03182 0.440747 6.1615 0.414917 6.29247 0.414917C6.42344 0.414917 6.55312 0.440747 6.67409 0.490929C6.79507 0.54111 6.90496 0.614658 6.99747 0.707361C7.37747 1.09736 7.38747 1.73736 6.99747 2.12736Z" fill="white" fill-opacity="0.32"/>
</svg>
