<svg width="8" height="12" viewBox="0 0 8 12" fill="none" xmlns="http://www.w3.org/2000/svg">
<path d="M7.00302 2.12739L3.12302 6.00739L7.00302 9.88739C7.0956 9.97997 7.16904 10.0899 7.21914 10.2108C7.26925 10.3318 7.29504 10.4615 7.29504 10.5924C7.29504 10.7233 7.26925 10.853 7.21914 10.9739C7.16904 11.0949 7.0956 11.2048 7.00302 11.2974C6.91043 11.39 6.80052 11.4634 6.67956 11.5135C6.5586 11.5636 6.42895 11.5894 6.29802 11.5894C6.16709 11.5894 6.03744 11.5636 5.91647 11.5135C5.79551 11.4634 5.6856 11.39 5.59302 11.2974L1.00302 6.70739C0.910312 6.61488 0.836765 6.50499 0.786583 6.38402C0.736402 6.26304 0.710572 6.13336 0.710572 6.00239C0.710572 5.87142 0.736402 5.74174 0.786583 5.62077C0.836765 5.49979 0.910312 5.38991 1.00302 5.29739L5.59302 0.707392C5.68553 0.614688 5.79542 0.54114 5.91639 0.490959C6.03736 0.440777 6.16705 0.414947 6.29802 0.414947C6.42898 0.414947 6.55867 0.440777 6.67964 0.490959C6.80061 0.54114 6.9105 0.614688 7.00302 0.707391C7.38302 1.09739 7.39302 1.73739 7.00302 2.12739Z" fill="white"/>
</svg>
